<?xml version="1.0" encoding="UTF-8"?>
<svg id="a" data-name="图层 1" xmlns="http://www.w3.org/2000/svg" viewBox="0 0 850.23 789.53">
  <defs>
    <linearGradient id="b" x1="0" y1="389.26" x2="571.13" y2="389.26" gradientUnits="userSpaceOnUse">
      <stop offset=".04" stop-color="#039"/>
      <stop offset="1" stop-color="#039"/>
    </linearGradient>
  </defs>
  <polyline points="112.81 150.35 111.91 305.54 0 305.54 0 378.83 112.81 378.83 112.81 590.53 258.13 590.53 258.13 692.45 268.28 692.45 313.41 692.45 571.13 692.45 571.13 628.17 331.42 628.17 331.42 452.56 435.92 452.56 435.92 379.27 294.49 379.27 294.49 379.62 258.13 379.62 258.13 517.24 186.11 517.24 186.11 159.35 293.09 159.35 293.09 86.06 112.95 86.06" style="fill: url(#b);"/>
  <g>
    <path d="m839.17,638.79c4.92,0,11.06-3.69,11.06-8.6v-35.23c0-4.92-5.73-11.06-11.06-11.06h-35.23c-2.87,0-5.73,2.46-7.37,4.51l-19.66-13.11v-31.13c0-4.92-3.69-10.65-8.6-10.65h-35.23c-4.92,0-10.65,5.32-10.65,10.65v35.23c0,1.64,1.23,3.28,2.05,4.92l-53.25,61.03v-8.6c-4.1,2.87-11.06,5.32-20.07,6.55-1.23,0-2.05.41-3.28.41-.82,0-1.23,0-2.05.41-.82,0-2.05,0-2.87.41h-2.46c-1.23,0-2.46,0-4.1.41h-6.96c-16.38,0-32.77-2.46-40.96-7.78v65.95c.41,1.64,4.51,3.69,9.83,5.32,7.37,2.05,18.84,4.1,33.59,4.1,27.44,0,38.91-6.14,38.91-9.42v-7.37l50.79,54.07v29.08c0,4.92,5.73,10.65,10.65,10.65h35.23c4.92,0,8.6-5.32,8.6-10.65v-31.95l21.3-18.02c1.64,1.23,3.69.82,5.32.82h35.23c4.92,0,11.06-2.46,11.06-7.78v-35.23c0-4.92-5.73-7.37-11.06-7.37h-11.88v-40.55h13.11Zm-63.49-53.66l19.66,13.93v18.02l-10.24,3.69-15.97-32.36c2.46,0,5.32-1.23,6.55-3.28Zm18.02,74.14l-15.97,32.77-105.27-21.3,107.73-38.5,13.52,27.03Zm-122.47,1.23l62.26-71.68h25.4l17.61,35.23-104.86,37.27v-.82h-.41Zm61.85,74.55c-3.28,0-5.73,1.64-7.37,3.69l-54.48-56.94v-2.05l102.4,20.89-16.79,34.41h-23.76Zm62.26-13.52l-20.07,16.38c-1.64-1.64-4.1-2.87-6.96-2.87h-1.23l15.97-32.36,12.29,2.46v16.38Zm0-34v8.19l-8.19-1.64,11.88-24.17,4.51,8.6c-4.51.41-8.19,4.1-8.19,9.01Zm3.69-38.5l-9.83-20.07,6.14-2.05v3.28c0,4.92,3.69,9.01,8.19,9.01l-4.51,9.83Zm19.25,31.13h-4.92l-9.42-20.07,9.83-20.89h4.51v40.96Z" style="fill: #f93;"/>
    <path d="m629.86,639.2c8.6,0,15.57-.82,21.71-1.64,12.7-2.05,19.25-5.73,19.25-7.78s-6.55-5.73-19.25-7.78c-5.73-.82-13.11-1.64-21.71-1.64-26.62,0-40.96,6.14-40.96,9.42,0,2.87,14.34,9.42,40.96,9.42Z" style="fill: #f93;"/>
  </g>
  <g>
    <path d="m721.41,385.05c5.31,0,11.96-3.99,11.96-9.3v-38.08c0-5.31-6.2-11.96-11.96-11.96h-38.08c-3.1,0-6.2,2.66-7.97,4.87l-21.25-14.17v-33.65c0-5.31-3.99-11.51-9.3-11.51h-38.08c-5.31,0-11.51,5.76-11.51,11.51v38.08c0,1.77,1.33,3.54,2.21,5.31l-57.56,65.98v-9.3c-4.43,3.1-11.96,5.76-21.7,7.08-1.33,0-2.21.44-3.54.44-.89,0-1.33,0-2.21.44-.89,0-2.21,0-3.1.44h-2.66c-1.33,0-2.66,0-4.43.44h-7.53c-17.71,0-35.42-2.66-44.28-8.41v71.29c.44,1.77,4.87,3.99,10.63,5.76,7.97,2.21,20.37,4.43,36.31,4.43,29.67,0,42.07-6.64,42.07-10.18v-7.97l54.91,58.45v31.44c0,5.31,6.2,11.51,11.51,11.51h38.08c5.31,0,9.3-5.76,9.3-11.51v-34.54l23.03-19.48c1.77,1.33,3.99.89,5.76.89h38.08c5.31,0,11.96-2.66,11.96-8.41v-38.08c0-5.31-6.2-7.97-11.96-7.97h-12.84v-43.84h14.17Zm-68.63-58.01l21.25,15.06v19.48l-11.07,3.99-17.27-34.98c2.66,0,5.76-1.33,7.08-3.54Zm19.48,80.15l-17.27,35.42-113.8-23.03,116.46-41.62,14.61,29.22Zm-132.4,1.33l67.3-77.49h27.45l19.04,38.08-113.36,40.29v-.89h-.44Zm66.86,80.59c-3.54,0-6.2,1.77-7.97,3.99l-58.89-61.55v-2.21l110.7,22.58-18.15,37.19h-25.68Zm67.3-14.61l-21.7,17.71c-1.77-1.77-4.43-3.1-7.53-3.1h-1.33l17.27-34.98,13.28,2.66v17.71Zm0-36.75v8.86l-8.86-1.77,12.84-26.12,4.87,9.3c-4.87.44-8.86,4.43-8.86,9.74Zm3.99-41.62l-10.63-21.7,6.64-2.21v3.54c0,5.31,3.99,9.74,8.86,9.74l-4.87,10.63Zm20.81,33.65h-5.31l-10.18-21.7,10.63-22.58h4.87v44.28Z" style="fill: #6cd975;"/>
    <path d="m495.14,385.49c9.3,0,16.83-.89,23.47-1.77,13.73-2.21,20.81-6.2,20.81-8.41s-7.08-6.2-20.81-8.41c-6.2-.89-14.17-1.77-23.47-1.77-28.78,0-44.28,6.64-44.28,10.18,0,3.1,15.5,10.18,44.28,10.18Z" style="fill: #6cd975;"/>
  </g>
  <g>
    <path d="m537.11,94.9c4.43,0,9.97-3.32,9.97-7.75v-31.76c0-4.43-5.17-9.97-9.97-9.97h-31.76c-2.58,0-5.17,2.22-6.65,4.06l-17.73-11.82V9.6c0-4.43-3.32-9.6-7.75-9.6h-31.76c-4.43,0-9.6,4.8-9.6,9.6v31.76c0,1.48,1.11,2.95,1.85,4.43l-48.01,55.02v-7.75c-3.69,2.58-9.97,4.8-18.09,5.91-1.11,0-1.85.37-2.95.37-.74,0-1.11,0-1.85.37-.74,0-1.85,0-2.58.37h-2.22c-1.11,0-2.22,0-3.69.37h-6.28c-14.77,0-29.54-2.22-36.93-7.02v59.45c.37,1.48,4.06,3.32,8.86,4.8,6.65,1.85,16.99,3.69,30.28,3.69,24.74,0,35.08-5.54,35.08-8.49v-6.65l45.79,48.74v26.22c0,4.43,5.17,9.6,9.6,9.6h31.76c4.43,0,7.75-4.8,7.75-9.6v-28.8l19.2-16.25c1.48,1.11,3.32.74,4.8.74h31.76c4.43,0,9.97-2.22,9.97-7.02v-31.76c0-4.43-5.17-6.65-9.97-6.65h-10.71v-36.56h11.82Zm-57.24-48.37l17.73,12.56v16.25l-9.23,3.32-14.4-29.17c2.22,0,4.8-1.11,5.91-2.95Zm16.25,66.84l-14.4,29.54-94.9-19.2,97.12-34.71,12.19,24.37Zm-110.41,1.11l56.13-64.62h22.89l15.88,31.76-94.53,33.6v-.74h-.37Zm55.76,67.21c-2.95,0-5.17,1.48-6.65,3.32l-49.11-51.33v-1.85l92.32,18.83-15.14,31.02h-21.42Zm56.13-12.19l-18.09,14.77c-1.48-1.48-3.69-2.58-6.28-2.58h-1.11l14.4-29.17,11.08,2.22v14.77Zm0-30.65v7.39l-7.39-1.48,10.71-21.79,4.06,7.75c-4.06.37-7.39,3.69-7.39,8.12Zm3.32-34.71l-8.86-18.09,5.54-1.85v2.95c0,4.43,3.32,8.12,7.39,8.12l-4.06,8.86Zm17.36,28.06h-4.43l-8.49-18.09,8.86-18.83h4.06v36.93Z" style="fill: #617ce6;"/>
    <path d="m348.41,95.27c7.75,0,14.03-.74,19.57-1.48,11.45-1.85,17.36-5.17,17.36-7.02s-5.91-5.17-17.36-7.02c-5.17-.74-11.82-1.48-19.57-1.48-24,0-36.93,5.54-36.93,8.49,0,2.58,12.92,8.49,36.93,8.49Z" style="fill: #617ce6;"/>
  </g>
</svg>