<svg xmlns="http://www.w3.org/2000/svg" viewBox="0 0 64 64" fill="none">
  <rect x="2.5" y="2.5" width="59" height="59" rx="10" fill="#fff" stroke="#53a9ff" stroke-width="3"/>
  <g transform="translate(4 4) scale(0.875)">
    <path d="M16 44V16" stroke="#0f172a" stroke-width="3" stroke-linecap="round"/>
    <path d="M16 20H28" stroke="#0f172a" stroke-width="3" stroke-linecap="round"/>
    <path d="M16 30H28" stroke="#0f172a" stroke-width="3" stroke-linecap="round"/>
    <path d="M28 20V26" stroke="#0f172a" stroke-width="3" stroke-linecap="round"/>
    <path d="M28 30V36" stroke="#0f172a" stroke-width="3" stroke-linecap="round"/>
    <circle cx="16" cy="20" r="3" fill="#0f172a"/>
    <circle cx="16" cy="30" r="3" fill="#0f172a"/>
    <circle cx="16" cy="44" r="3" fill="#0f172a"/>
    <circle cx="28" cy="20" r="3" fill="#10b981"/>
    <circle cx="28" cy="30" r="3" fill="#10b981"/>
    <circle cx="28" cy="36" r="3" fill="#10b981"/>

    <path d="M40 18l6 6-2 2-6-6 2-2z" fill="#60a5fa"/>
    <path d="M44 14l6 6-4 4-6-6 4-4z" fill="#2563eb"/>
    <path d="M36 40l10-10" stroke="#0f172a" stroke-width="3" stroke-linecap="round"/>
    <path d="M46 30l4 4" stroke="#0f172a" stroke-width="3" stroke-linecap="round"/>
    <path d="M34 42l4 4" stroke="#0f172a" stroke-width="3" stroke-linecap="round"/>
  </g>
</svg>
