<svg xmlns="http://www.w3.org/2000/svg" viewBox="0 0 64 64" fill="none">
  <rect x="2.5" y="2.5" width="59" height="59" rx="10" fill="#fff" stroke="#53a9ff" stroke-width="3"/>
  <g transform="translate(4 4) scale(0.875)">
    <path d="M16 44V16" stroke="#0f172a" stroke-width="3" stroke-linecap="round"/>
    <path d="M16 22H26" stroke="#0f172a" stroke-width="3" stroke-linecap="round"/>
    <path d="M16 32H26" stroke="#0f172a" stroke-width="3" stroke-linecap="round"/>
    <path d="M26 22V26" stroke="#0f172a" stroke-width="3" stroke-linecap="round"/>
    <path d="M26 32V36" stroke="#0f172a" stroke-width="3" stroke-linecap="round"/>
    <circle cx="16" cy="22" r="3" fill="#0f172a"/>
    <circle cx="16" cy="32" r="3" fill="#0f172a"/>
    <circle cx="16" cy="44" r="3" fill="#0f172a"/>
    <circle cx="26" cy="22" r="3" fill="#10b981"/>
    <circle cx="26" cy="32" r="3" fill="#10b981"/>
    <circle cx="26" cy="36" r="3" fill="#10b981"/>

    <rect x="34" y="18" width="18" height="28" rx="4" stroke="#0f172a" stroke-width="3"/>
    <circle cx="38" cy="26" r="2.5" fill="#2563eb"/>
    <path d="M42 26H49" stroke="#0f172a" stroke-width="3" stroke-linecap="round"/>
    <circle cx="38" cy="32" r="2.5" fill="#60a5fa"/>
    <path d="M42 32H49" stroke="#0f172a" stroke-width="3" stroke-linecap="round"/>
    <circle cx="38" cy="38" r="2.5" fill="#93c5fd"/>
    <path d="M42 38H49" stroke="#0f172a" stroke-width="3" stroke-linecap="round"/>
  </g>
</svg>
