<svg xmlns="http://www.w3.org/2000/svg" viewBox="0 0 64 64" fill="none">
  <rect x="2.5" y="2.5" width="59" height="59" rx="10" fill="#fff" stroke="#53a9ff" stroke-width="3"/>
  <g transform="translate(4 4) scale(0.875)">
    <path d="M10 14h22l6 6v26a6 6 0 0 1-6 6H10a6 6 0 0 1-6-6V20a6 6 0 0 1 6-6z" stroke="#0f172a" stroke-width="3" stroke-linejoin="round"/>
    <path d="M32 14v8h8" stroke="#0f172a" stroke-width="3" stroke-linecap="round" stroke-linejoin="round"/>
    <path d="M12 28h18M12 36h14M12 44h18" stroke="#1d4ed8" stroke-width="3" stroke-linecap="round"/>
    <path d="M34 32h6" stroke="#0f172a" stroke-width="3" stroke-linecap="round"/>
    <path d="M40 28l6 4-6 4" stroke="#0f172a" stroke-width="3" stroke-linecap="round" stroke-linejoin="round"/>
    <path d="M42 32H56" stroke="#10b981" stroke-width="3" stroke-linecap="round"/>
    <path d="M56 22V42" stroke="#10b981" stroke-width="3" stroke-linecap="round"/>
    <path d="M56 22H60M56 32H60M56 42H60" stroke="#10b981" stroke-width="3" stroke-linecap="round"/>
    <circle cx="42" cy="32" r="3" fill="#0f172a"/>
    <circle cx="60" cy="22" r="3" fill="#0f172a"/>
    <circle cx="60" cy="32" r="3" fill="#0f172a"/>
    <circle cx="60" cy="42" r="3" fill="#0f172a"/>
  </g>
</svg>
