<svg xmlns="http://www.w3.org/2000/svg" viewBox="0 0 64 64" fill="none">
  <rect x="2.5" y="2.5" width="59" height="59" rx="10" fill="#fff" stroke="#53a9ff" stroke-width="3"/>
  <g transform="translate(4 4) scale(0.875)">
    <rect x="8" y="14" width="22" height="36" rx="4" stroke="#0f172a" stroke-width="3"/>
    <path d="M12 22h14M12 30h18M12 38h12M12 46h16" stroke="#1d4ed8" stroke-width="3" stroke-linecap="round"/>
    <path d="M30 32h7" stroke="#0f172a" stroke-width="3" stroke-linecap="round"/>
    <path d="M37 28l6 4-6 4" stroke="#0f172a" stroke-width="3" stroke-linecap="round" stroke-linejoin="round"/>
    <path d="M42 32H56" stroke="#10b981" stroke-width="3" stroke-linecap="round"/>
    <path d="M56 22V42" stroke="#10b981" stroke-width="3" stroke-linecap="round"/>
    <path d="M56 22H60M56 32H60M56 42H60" stroke="#10b981" stroke-width="3" stroke-linecap="round"/>
    <circle cx="42" cy="32" r="3" fill="#0f172a"/>
    <circle cx="60" cy="22" r="3" fill="#0f172a"/>
    <circle cx="60" cy="32" r="3" fill="#0f172a"/>
    <circle cx="60" cy="42" r="3" fill="#0f172a"/>
  </g>
</svg>
