<svg xmlns="http://www.w3.org/2000/svg" viewBox="0 0 64 64" fill="none">
  <rect x="2.5" y="2.5" width="59" height="59" rx="10" fill="#fff" stroke="#53a9ff" stroke-width="3"/>
  <g transform="translate(4 4) scale(0.875)">
    <path d="M14 18c6 0 6 28 12 28s6-28 12-28" stroke="#1d4ed8" stroke-width="3" stroke-linecap="round"/>
    <path d="M14 46c6 0 6-28 12-28s6 28 12 28" stroke="#1d4ed8" stroke-width="3" stroke-linecap="round"/>
    <path d="M16 22h20M16 30h20M16 38h20M16 46h20" stroke="#93c5fd" stroke-width="2" stroke-linecap="round"/>
    <path d="M40 32h7" stroke="#0f172a" stroke-width="3" stroke-linecap="round"/>
    <path d="M47 28l6 4-6 4" stroke="#0f172a" stroke-width="3" stroke-linecap="round" stroke-linejoin="round"/>
    <rect x="44" y="18" width="16" height="16" rx="3" stroke="#0f172a" stroke-width="3"/>
    <path d="M52 18v16M44 26h16" stroke="#0f172a" stroke-width="2" stroke-linecap="round"/>
    <rect x="44" y="38" width="16" height="16" rx="3" stroke="#0f172a" stroke-width="3"/>
    <path d="M52 38v16M44 46h16" stroke="#0f172a" stroke-width="2" stroke-linecap="round"/>
  </g>
</svg>
