<?xml version="1.0" encoding="UTF-8"?>
<svg id="a" data-name="图层 1" xmlns="http://www.w3.org/2000/svg" xmlns:xlink="http://www.w3.org/1999/xlink" viewBox="0 0 864.13 830.61">
  <defs>
    <clipPath id="b">
      <rect x=".13" width="864" height="830.61" style="fill: none;"/>
    </clipPath>
  </defs>
  <g style="clip-path: url(#b);">
    <path d="m768.99,819.46H94.81c-46.35,0-84.27-36.41-84.27-80.92V91.15C10.54,46.64,48.45,10.23,94.81,10.23h674.18c46.35,0,84.27,36.41,84.27,80.92v647.39c0,44.51-37.92,80.92-84.27,80.92h0Zm0,0" style="fill: #fff;"/>
    <path d="m768.99,829.57H94.81c-52.67,0-94.81-40.46-94.81-91.04V91.15C0,40.57,42.13.11,94.81.11h674.18c52.68,0,94.81,40.46,94.81,91.04v647.39c0,50.58-42.13,91.04-94.81,91.04h0ZM94.81,20.34c-40.03,0-73.74,32.37-73.74,70.81v647.39c0,38.44,33.71,70.81,73.74,70.81h674.18c40.03,0,73.74-32.37,73.74-70.81V91.15c0-38.44-33.71-70.81-73.74-70.81H94.81Zm0,0" style="fill: #53a9ff;"/>
  </g>
  <path d="m96.18,169.89h91.4v461.05h-91.4V169.89Zm127.57,0h45.7v461.05h-45.7V169.89Zm489.62-.02h37.81v461.05h-37.81V169.87Zm-411.55.01h55.22v461.05h-55.22V169.88Zm127.57,0h74.34v461.05h-74.34V169.88Zm119.95,0h128.64v461.05h-128.64V169.87Zm0,0" style="fill: #f7931e;"/>
  <rect x="555.23" y="371.39" width="58.45" height="58.45"/>
  <rect x="430.39" y="491.07" width="58.45" height="58.45" style="fill: #00d49e;"/>
  <rect x="432.13" y="208.61" width="58.45" height="58.45" style="fill: #a600f4;"/>
  <rect x="96.18" y="267.06" width="58.45" height="58.45"/>
</svg>