<svg xmlns="http://www.w3.org/2000/svg" viewBox="0 0 64 64" fill="none">
  <rect x="2.5" y="2.5" width="59" height="59" rx="10" fill="#fff" stroke="#53a9ff" stroke-width="3"/>
  <g transform="translate(4 4) scale(0.875)">
    <rect x="12" y="16" width="30" height="30" rx="5" stroke="#0f172a" stroke-width="3"/>
    <rect x="16" y="20" width="7" height="7" rx="2" fill="#93c5fd"/>
    <rect x="24" y="20" width="7" height="7" rx="2" fill="#60a5fa"/>
    <rect x="32" y="20" width="6" height="7" rx="2" fill="#2563eb"/>
    <rect x="16" y="28" width="7" height="7" rx="2" fill="#60a5fa"/>
    <rect x="24" y="28" width="7" height="7" rx="2" fill="#2563eb"/>
    <rect x="32" y="28" width="6" height="7" rx="2" fill="#1d4ed8"/>
    <rect x="16" y="36" width="7" height="6" rx="2" fill="#2563eb"/>
    <rect x="24" y="36" width="7" height="6" rx="2" fill="#1d4ed8"/>
    <rect x="32" y="36" width="6" height="6" rx="2" fill="#0f172a"/>
    <circle cx="46" cy="46" r="10" stroke="#0f172a" stroke-width="3"/>
    <path d="M54 54l8 8" stroke="#0f172a" stroke-width="3" stroke-linecap="round"/>
  </g>
</svg>
