<?xml version="1.0" encoding="UTF-8"?>
<svg id="a" data-name="图层 1" xmlns="http://www.w3.org/2000/svg" viewBox="0 0 817.15 815.11">
  <path d="m188.64,659.62h194.36v97.39s187.82,0,187.82,0v58.11s246.33,0,246.33,0v-61.38s-184.95,0-184.95,0v-54.83h184.95s0-61.38,0-61.38h-246.33s0,58.11,0,58.11h-126.44v-133.4h372.77s0-61.38,0-61.38h-432.52s0,30.69,0,30.69h-1.64s0,66.7,0,66.7h-194.36s0,61.38,0,61.38Zm0,0" style="fill: #00d42b;"/>
  <path d="m319.17,385.05h251.65v44.19s246.33,0,246.33,0v-61.38s-184.95,0-184.95,0v-54.83h184.95s0-61.38,0-61.38h-246.33s0,72.02,0,72.02h-251.65s0,61.38,0,61.38Zm0,0" style="fill: #f06;"/>
  <path d="m337.99,119.48h232.83v58.11s246.33,0,246.33,0v-61.38s-184.95,0-184.95,0v-54.83h184.95s0-61.38,0-61.38h-246.33s0,58.11,0,58.11h-232.83s0,61.38,0,61.38Zm0,0" style="fill: #00d2ff;"/>
  <path d="m0,467.3h145.26v192.32s61.38,0,61.38,0V242.24h69.97v142.81s61.38,0,61.38,0V57.69s-61.38,0-61.38,0v123.17h-131.35s0,225.05,0,225.05H0s0,61.38,0,61.38Zm0,0"/>
</svg>