<?xml version="1.0" encoding="UTF-8"?>
<svg id="a" data-name="图层 1" xmlns="http://www.w3.org/2000/svg" viewBox="0 0 18.95 20.38">
  <path d="m0,5.99c0-1.26,1.02-2.27,2.28-2.27,1.26,0,2.27,1.02,2.27,2.28,0,.34-.08.67-.22.97l.73.73c.69-.62,1.59-.96,2.52-.96.77,0,1.49.23,2.09.63l.41-.4c-.54-1.13-.06-2.49,1.07-3.03,1.13-.54,2.49-.06,3.03,1.07s.06,2.49-1.07,3.03c-.62.3-1.34.29-1.96,0l-.41.4c.4.6.63,1.32.63,2.09s-.24,1.53-.66,2.13l1.58,1.97c1.5-.75,3.32-.14,4.06,1.36.75,1.5.14,3.32-1.36,4.06-1.5.75-3.32.14-4.06-1.36-.49-.99-.41-2.16.22-3.07l-1.53-1.91c-.61.39-1.32.6-2.04.59-.46,0-.91-.08-1.34-.24l-.75.75c.98,1.36.67,3.25-.69,4.23-1.36.98-3.25.67-4.23-.69-.98-1.36-.67-3.25.69-4.23.89-.64,2.06-.75,3.06-.28l.61-.61c-.73-.71-1.14-1.69-1.14-2.71,0-.57.13-1.12.35-1.6l-.89-.89c-1.13.54-2.49.06-3.03-1.07C.08,6.66,0,6.33,0,5.99H0Zm2.27-.76c-.42-.02-.77.3-.79.72-.02.42.3.77.72.79.02,0,.05,0,.07,0,.42-.02.74-.37.72-.79-.02-.39-.33-.7-.72-.72Zm.76,9.85c-.84,0-1.52.68-1.52,1.52s.68,1.52,1.52,1.52,1.52-.68,1.52-1.52-.68-1.52-1.52-1.52Zm9.09,2.27c0-.84.68-1.52,1.51-1.52.84,0,1.52.68,1.52,1.51h0c0,.84-.68,1.52-1.52,1.52-.84,0-1.51-.68-1.51-1.51Zm-4.55-9.09c-1.26,0-2.27,1.02-2.27,2.27s1.02,2.27,2.27,2.27c1.26,0,2.27-1.02,2.27-2.27,0-1.25-1.02-2.27-2.27-2.27h0Zm3.79-2.27c-.01-.42.31-.77.73-.78.42-.01.77.31.78.73,0,.02,0,.03,0,.05-.01.42-.36.75-.78.73-.4-.01-.72-.33-.73-.73Z" style="fill: #1296db;"/>
  <text transform="translate(10.87 3.46) scale(1.13 1)" style="fill: #6b1784; font-family: ArialMT, Arial; font-size: 4.04px;"><tspan x="0" y="0">Wnt</tspan></text>
</svg>